# xmcd
#
# Track frame offsets: 
#        150
#        3825
#        24001
#        43900
#        71331
#        88477
#        110002
#        125133
#        144774
#        159512
#        177042
#        198633
#        215975
#        239590
#        264952
#        285381
#        302223
#        339750
#
# Disc length: 4795 seconds
#
# Revision: 0
# Processed by: cddbd v1.4PL0 Copyright (c) Steve Scherf et al.
# Submitted via: ExactAudioCopy v0.90b4
#
DISCID=0112b912
DTITLE=KMC - Kinzdom Come
DYEAR=2002
DGENRE=Hip-Hop
TTITLE0=Intro
TTITLE1=Out of Hell
TTITLE2=Knock Knock
TTITLE3=Dead Veteranz
TTITLE4=Misbehaven
TTITLE5=Part of Me
TTITLE6=Don't be Afraid
TTITLE7=K6
TTITLE8=Double Barrel
TTITLE9=P. Made the Beat
TTITLE10=Beef in Bc
TTITLE11=And We
TTITLE12=In The Club
TTITLE13=It Ain't Right
TTITLE14=Kmc Goes West
TTITLE15=Drop
TTITLE16=Kinfection
TTITLE17=Daten-CD
EXTD=
EXTT0=
EXTT1=
EXTT2=
EXTT3=
EXTT4=
EXTT5=
EXTT6=
EXTT7=
EXTT8=
EXTT9=
EXTT10=
EXTT11=
EXTT12=
EXTT13=
EXTT14=
EXTT15=
EXTT16=
EXTT17=
PLAYORDER=
